<svg width="7" height="12" viewBox="0 0 7 12" fill="none" xmlns="http://www.w3.org/2000/svg">
<path d="M0.182998 11.8187C-0.0401549 11.5977 -0.0601569 11.2508 0.128147 11.0088L0.184671 10.9455L5.6792 5.56307C5.92515 5.32193 6.32252 5.32275 6.56679 5.56471C6.68809 5.68487 6.75 5.84289 6.75 6.00008C6.75 6.13245 6.70701 6.26425 6.62151 6.37404L6.56512 6.4371L1.07059 11.8196C0.82464 12.0607 0.427273 12.0599 0.182998 11.8187ZM0.184754 1.0553C-0.062031 0.81416 -0.0603579 0.423233 0.183081 0.182092C0.407001 -0.0397079 0.759559 -0.0588828 1.00621 0.124567L1.07067 0.179623L4.71975 3.75394C4.84272 3.8741 4.90463 4.03294 4.90463 4.19095C4.90463 4.34815 4.84273 4.50616 4.72142 4.62632C4.4975 4.84812 4.14495 4.8673 3.8983 4.68385L3.83383 4.62879L0.184754 1.0553Z" fill="#D4A200"/>
</svg>
