<svg width="15" height="17" viewBox="0 0 15 17" fill="none" xmlns="http://www.w3.org/2000/svg">
<path d="M8.6195 14.934C8.85533 14.7236 9.21724 14.7105 9.46903 14.9171C9.74599 15.1443 9.78482 15.5511 9.55575 15.8258C8.99105 16.5582 8.1174 16.9914 7.18781 17L7.00326 16.9922C6.1462 16.93 5.35296 16.5074 4.82741 15.8258L4.77156 15.7478C4.60737 15.4786 4.66235 15.1236 4.91414 14.9171C5.1911 14.6899 5.60133 14.7284 5.8304 15.0031C5.931 15.1364 6.05035 15.2548 6.18483 15.3546C6.54428 15.62 6.99566 15.7321 7.43881 15.6662C7.88197 15.6002 8.28023 15.3615 8.54523 15.0031H8.55277L8.6195 14.934ZM7.19535 0C9.80461 0 12.7306 1.83986 13.0624 4.79411V6.3348C13.1757 6.89087 13.436 7.4071 13.8165 7.83062C13.8391 7.8562 13.8593 7.88373 13.8769 7.91289C14.2219 8.43233 14.4199 9.0342 14.45 9.65552L14.4274 9.81258C14.4534 10.6628 14.1696 11.4939 13.628 12.1535C12.9364 12.8998 11.9909 13.366 10.9735 13.4624C8.46742 13.7375 5.93837 13.7375 3.43229 13.4624C2.42976 13.3594 1.50073 12.8934 0.823031 12.1535C0.272524 11.5034 -0.019765 10.6763 0.00103877 9.82754V9.72283C0.0424998 9.08292 0.256025 8.4657 0.619418 7.93533L0.679748 7.86054C1.05767 7.43523 1.31755 6.91975 1.43387 6.36472V4.82402L1.47557 4.73795C1.60236 4.51944 1.84929 4.39164 2.10791 4.41962C2.39885 4.4511 2.63249 4.67194 2.67817 4.95865V6.49934C2.6811 6.52669 2.6811 6.55426 2.67817 6.58161C2.52115 7.3532 2.16224 8.07026 1.63748 8.6608C1.43539 8.98006 1.321 9.34618 1.30567 9.72283V9.88737C1.28893 10.4171 1.46568 10.935 1.80339 11.3458C2.2716 11.8254 2.89771 12.1226 3.56803 12.1835C5.99417 12.4452 8.44178 12.4452 10.8679 12.1835C11.5566 12.1208 12.198 11.8094 12.6703 11.3084C12.9914 10.9073 13.1596 10.4068 13.1454 9.89485V9.72283C13.1299 9.34492 13.0184 8.97702 12.8211 8.65332C12.2745 8.06948 11.8945 7.35184 11.7201 6.57413C11.7171 6.54679 11.7171 6.51921 11.7201 6.49186V4.94369C11.5014 2.685 9.23148 1.28641 7.25568 1.28641C6.41568 1.28449 5.58949 1.49835 4.85758 1.90717L4.76793 1.95167C4.58365 2.02608 4.3728 2.01302 4.19757 1.91202C3.99312 1.79418 3.86955 1.57533 3.87507 1.34088C3.8806 1.10643 4.01435 0.893541 4.22412 0.785306C5.13106 0.277161 6.15371 0.00687031 7.19535 0Z" fill="white"/>
</svg>
