<svg width="13" height="13" viewBox="0 0 13 13" fill="none" xmlns="http://www.w3.org/2000/svg">
<path fill-rule="evenodd" clip-rule="evenodd" d="M6.5 13C10.0899 13 13 10.0899 13 6.5C13 2.91015 10.0899 0 6.5 0C2.91015 0 0 2.91015 0 6.5C0 10.0899 2.91015 13 6.5 13ZM8.90962 5.00962C9.16346 4.75578 9.16346 4.34422 8.90962 4.09038C8.65578 3.83654 8.24422 3.83654 7.99038 4.09038L6.5 5.58076L5.00962 4.09038C4.75578 3.83654 4.34422 3.83654 4.09038 4.09038C3.83654 4.34422 3.83654 4.75578 4.09038 5.00962L5.58076 6.5L4.09038 7.99038C3.83654 8.24422 3.83654 8.65578 4.09038 8.90962C4.34422 9.16346 4.75578 9.16346 5.00962 8.90962L6.5 7.41924L7.99038 8.90962C8.24422 9.16346 8.65578 9.16346 8.90962 8.90962C9.16346 8.65578 9.16346 8.24422 8.90962 7.99038L7.41924 6.5L8.90962 5.00962Z" fill="black"/>
</svg>
