<svg width="20" height="12" viewBox="0 0 20 12" fill="none" xmlns="http://www.w3.org/2000/svg">
<path d="M10.0782 11.2175V6.78256L18.8354 6.78256C19.2775 6.78256 19.6364 6.43202 19.6364 6.0001C19.6364 5.56819 19.2775 5.21765 18.8354 5.21765L10.0782 5.21765L10.0782 0.782668C10.0782 0.497853 9.92017 0.234946 9.66387 0.0972337C9.40863 -0.0404791 9.09679 -0.0310895 8.85116 0.120186L0.374853 5.33762C0.140974 5.4816 3.8147e-06 5.73094 3.8147e-06 6.0001C3.8147e-06 6.26927 0.140974 6.51861 0.374853 6.66259L5.64945 9.90823C6.02216 10.1388 6.51769 10.0292 6.75371 9.6641C6.98866 9.29791 6.87652 8.81487 6.50167 8.58431L2.30464 6.0001L8.47631 2.19944L8.47631 11.2175C8.47631 11.6495 8.83514 12 9.27727 12C9.7194 12 10.0782 11.6495 10.0782 11.2175Z" fill="#D4A200"/>
</svg>
